<?xml version="1.0" encoding="UTF-8"?>
<svg id="Calque_2" data-name="Calque 2" xmlns="http://www.w3.org/2000/svg" viewBox="0 0 357.35 367.26">
  <defs>
    
  </defs>
  <g id="Calque_1-2" data-name="Calque 1">
    <g>
      <g>
        <path fill="#5e5f5f" d="M352.09,340.74l-.12-4.8,1.63-16.97c.22-2.27-1.08-3.3-1.45-5.1-.56-2.68.66-5.89-1.51-8.26l-12.04-14.11c-2.12-4.82-4.72-9.12-8.45-12.95l-2.87-2.38,4.46-37.29.56-4.4,25.05-202.42V10.68c-3.35-6.64-9.59-10.22-17.14-10.22l-137.4.04h-1.92s-6.68,0-6.68,0c-8.82,0-16.66,6.55-17.84,15.47l-3.83,28.89-1.19,1.1-3.05-5.32-4.68-7.61-2.13-2.31C147.4,13.38,127.62,2.16,105.5.42c-7.84-.61-15.25-.46-23.17-.16C35.42,2.07.25,43.68,4.14,90.01c1.47,17.5,11.85,39.88,20,55.8,5.12,10.01,10.63,19.36,16.39,29.18,0,0-.01,0-.02.01.13.15.2.35.21.55.18.12.3.31.34.52,0,0,.02-.02.03-.02l8.52,13.88s0,.05,0,.08c.02.02.03.03.05.05.11.11.17.23.21.36.04.07.08.15.11.23.34.41.67.83.93,1.3,0,0,0-.02,0-.03l26.42,40.43-8.38,4.23-3.53-.13-52.2,1.07c-4.11-1.82-8.11-3.21-12.83-3.05-.82,3.63-.61,8.72,2.72,10.99,2.72,1.86,6.88,1.52,9.94,1.71,1.05.07,1.38-1.58,1.84-2.01,1.43-.62,3.41-.67,5.27-.86.57,6.88,1.09,13.56,2.74,20.29-6.45,3.18-10.26,8.45-12.48,14.97-5.71,3.36-5.46,10.69-3.82,17.4l1.02,14.9c-2.18,3.97-1.06,8.4,2.17,11.43l4.56,4.18c2.22,9.19,7.63,20.31,17.67,19.87l17.23-.75c5.6-.24,10.03-3.78,12.31-9.05l83.97,10c1.96.23,3.42.54,5.2.26,2.95,9.05,9.59,18.4,19.1,19.2,7.85.66,15.58.07,23.26-1.36,5.05-.94,9.04-3.46,12.07-7.66l28.63,3.02,16.77.79,7.47.1,11.51.02,15.49-.55c17.89-.63,35.36-3.34,52.97-6.37l8.79-2.12c3.98-.96,9.79-6.03,8.17-9.64-.42-.94-1.48-1.8-2.86-2.49ZM338.87,295.83c-.99-.11-2.52-1.03-3-2.02-2.44-5.11-5.24-9.67-8.86-14.03-1.94-2.33-4.22-4.88-7.44-5.18-.87-.08-.97,1.82-.78,2.44l-.35.31-.68-2.54c-.16-.61.18-1.19.5-1.45.34-.27,1.03-.46,1.6-.22,9.36,3.98,15.78,12.68,19.01,22.7ZM324.11,278.99c1.14-.05,1.54,1.42,1.51,2.23-.03.9-.32,2.33-1.85,2.33-1.16,0-1.28-1.52-1.28-2.28,0-.82.41-2.22,1.62-2.28ZM321.05,281.58c-1.13-1.31-1.83-2.59-2.39-4.06.04-.13.17-.16.23-.11,1.25.17,2.51-.22,4.13.53-1.12,1.04-1.87,1.89-1.98,3.64ZM330.34,286.4c.58,1.38.85,2.7-.03,4.49-2.51-1.86-4.5-3.78-6.45-6,2.54-.78,4.79-.03,6.48,1.51ZM177.38,16.9c1.25-7.67,7.69-15.06,16.09-15.07l141.8-.08c7.61,0,14.26,7.37,13.31,15.18l-23.42,191.15-7.64,62.27-7.03-2.09,4.52-36.76,13.5-110.09,11.09-90.78c.23-1.92-1.07-4.31-3.16-4.31h-149.15c-2.61,0-3.94,2.83-3.99,4.93l-4.6,37.25c-1.39-6.28-3.05-12.29-5.5-18.27l4.17-33.35ZM240.92,289.71c4.48,3.13,9.98,8.63,10.82,13.79,1.3,7.99-13.21,5.56-20.55,2.2,4,.16,7.52,1.38,11.25.29,1.39-.41,2.73-1.05,3.38-1.96,2.69-3.76-1.58-9.98-4.9-14.32ZM243.28,298.16c2.98,11.47-30.92,2.04-32.6-13.83-.35-3.35,1.83-6.06,5.24-6.3,2.66-.19,5.27.38,7.75,1.54,7.42,3.48,17.59,10.79,19.61,18.59ZM175.4,271.77l-2.17,5.7c-.31.83-.86,1.16-1.57.96-.75-.21-.87-1-.53-1.79l2.12-4.95c.24-.56.76-.76,1.23-.8.34-.03,1.07.48.91.88ZM177.06,271.7c.46-.78,2.39-.1,2.13.52l-1.99,4.81c-.33.79-.61,1.04-1.03,1.23-2.15.95-1.31-2.81.88-6.56ZM171.93,271.44l-2.75,6.78c-.25.63-.98.65-1.27.59-1.53-.3.54-5.04,2.4-8.05.31-.51,1.78.27,1.62.67ZM177.9,279.26c1.88-1.74,3.83-5.69,3.4-7.02-.65-1.99-4.56-2.56-7.71-2.67l-4.18-.15c-1.81,3.11-3.12,6.19-4.2,9.68-5.7,1.78-10.23,5.46-13.66,10.41-8.33,12.03-10.07,29.15-7.97,43.41l-2.62-.48-1.17-26.84c-.52-11.95-.38-26.98,4.47-37.62l5.13-.11,26,1.3c9.53.48,18.71,1.64,28.05,3.56l11.1,2.87c-5.04.32-8.43,3.19-8.26,7.98.22,6.39,5.87,12.01,11.49,15.93-1.98,1.52-4.63,1.83-7.28,1.63l-18.3-1.36c-6.9-13.18-18.69-22.82-33.28-15.79,5.37-4.92,12.69-3.27,18.99-4.73ZM89.74,264.57c-.68,6.21,3.21,11.47,9.28,12.35,7.64,1.11,15.01-1.04,21.2-5.54.58-.13,1.47.87,1.79,1.27,1.45,1.82,3.9,2.74,6.19,1.77,2.12-.9,3.96-2.33,5.25-4.23l-.84-2.62,10.47.64c-4.91,10.9-4.66,25.9-4.18,38.23l1,25.81-48.39-7.46c-4.39-.68-7.99-3.01-10.4-6.75-4.62-7.15-7.74-14.97-9.99-23.23-2.19-8.06-4.15-20.87,1.99-25.94l6.7-5.53,9.92,1.23ZM78.37,251.69l-15.2.65c3.49-3.44,7.44-5.7,11.51-8.11l7.18-3.72-3.49,11.19ZM94.59,213.78l2.83-2.14c4.94-3.74-2.37-8.19,3.17-13.08,6.62-5.85,2.42-11.35,6.56-17.54,1.45-2.17,4.17-3.78,6.6-3.07.36,1.14.69,3.04,2.57,2.73-1.87-1.69-2.14-3.97-.47-5.57,4.03-3.86,12.45-2.07,17.43,1.32,3.82,2.6,5.93,6.57,6.84,11.06.54,2.71,1.89,5.09,4.17,6.67,3.24,2.24,4.02,6.2,2.45,9.82-1.53,3.53-.36,6.63,2.9,8.52,3.2,1.85,4.35,5.68,2.4,8.78-1.65,2.63,2.35,4.88-.46,8.61-.47-1.81-1.87-2.8-3.58-2.83l-6.1-.09c-2.79-.04-5.02-1.76-6.13-3.81-3.3-6.07,4.02-10.26,2.42-18.72,5.66,4.75-1.76,9.08.95,14.84,1.29,2.75,4.05,5.42,7.33,5.35-2.19-1.95-4.71-2.6-6.01-5.03-1.21-2.26-1.04-4.94.17-7.22,1.73-3.26.96-6.63-1.79-9.07-2.13-1.89-3.94-4.12-3.7-7.35l5.67,2.07c2.25.82,2.93,2.5,3.66,5.01,1.29-2.8-.84-5.21-3.46-6.04-5.4-1.72-8.87-3.09-9.33-9.75-.29-4.17-3.31-7.33-7.55-6.79-2.2,1.01-4.61,1.09-6.94.33-5.2,1.05-8.4,5.5-7.63,10.77.88,5.98-3.69,8.54-3.71,10.48-.05,4.02,4.04,4.75,4.41,5.12,2.05,2.04-4.02,1.92-6.58,7.35-1.19,2.53-1.17,5.37.31,7.79l-7.08,4.6c-2.32,1.5-3.77,3.73-5.15,6.02-2.7-3.72-2.19-8.17,1.2-10.78,2.47-1.9-1.72-5.82,1.65-8.37ZM143.64,122.42c-.96,1.22-1.96,2.41-3,3.54-3.94,4.3-8.56,7.97-13.63,10.85s-10.43,4.88-16.06,6.06-11.57,1.5-17.36.92c-1.51-.15-3.01-.36-4.5-.63-13.4-2.41-25.3-9.83-33.92-20.72,0,0,0,0-.01-.01-.94-.79-1.61-1.81-2.31-2.8-.22-.32-.43-.64-.61-.98l-3.31-6.05c-1.87-3.68-3.36-7.44-4.15-11.91l-.85-3.08c-3.44-18.78,2.76-38.03,16.44-51.11,14.07-13.45,33.85-18.79,52.79-13.94,26.78,6.85,44.42,32.06,42.32,59.47l-.24,1.05c-.16.71-.08,1.56-.16,2.29-.1.84-.24,1.67-.4,2.5-.32,1.63-.69,3.24-1.15,4.84-.64,2.22-1.28,4.44-2.17,6.58-1.93,4.66-4.59,9.12-7.73,13.13ZM147.86,129.02l8.09,8.89-9.55,8.42-7.73-8.48c3.38-2.7,6.27-5.44,9.19-8.82ZM157.86,164.58l-5.89,48.2-3.87-3.13c-3.2-2.59,4.77-10.75-3.08-16.37-2.02-1.45-4.57-4.93-3.66-7.57l13.32-24.71,3.18,3.58ZM184.15,49.11c2.7-2.3,6.12-2.62,7.5-1.2.85.87.72,1.96.95,3.53.15,1,1.82,2.52.88,3.79-.74.99-2.3,1.59-3.42,2.44-3.05-1.8-3.12-3.94-4.01-4.17-1.52-.39-2.29,2-3.61,1.61-.7-.21-1.44-3.33,1.7-6ZM182.95,46.18c.28-.54,1.59-.74,2.31.22-.66,1.04-1.6,1.68-2.59,2.44-.13-.93-.15-1.84.28-2.66ZM185.62,54.26c.75,1.78,1.16,2.92,2.85,3.49-.37,1.38-.07,2.59-.14,4.03l-.19,3.69c-.27,5.26-2.6,4.98-3.47,8.82l-5.29-.05,2.14-17.99c1.74.32,2.91-.16,4.11-1.99ZM179.65,75.46l5.44-.07,1.82-3.45c1.9-2.02,2.38-4.16,2.37-6.9,0-1.93.53-3.77-.13-5.85,1.88-.89,3.81-1.8,5.16-3.19,1.36-1.39-.23-3.49-.5-4.78-.37-1.81-.3-3.16-1.61-4.31-2.59-2.28-5.17.65-6.56-1.55-.47-.75-1.64-.75-2.68-.63l1.75-14.57c.19-1.6,1.69-2.71,3.3-2.6,2.07.14,4.32-.62,6.15.21l3.56,1.6-2.36,2.37c-1.09,1.1-2.72,3.6-1.55,5.1.86,1.1,2.81-.31,3.79-.87-.69,1.59-1.41,3.04-1.94,4.72l-1.4,4.45c-.17.55.1,1.13.5,1.36,1.83,1.06,2.87-2.99,4.57-5.48.2,1.41.79,2.81.75,4.1-.09,2.78-4.11,3.74-2.82,7.14.51,1.36,2,.73,2.95.91,2.41.46,4.11.39,6.9-.8-.61,1.31-1.52,1.8-1.76,2.47-.65,1.39-.05,2.51.55,3.61.17,1.22.73,2.04,2.36,2.19-1,1.95-1.35,3.94-1.89,6.24-2.1-.39-4.54-1.29-6.21-.09l-3.63,2.61c-.4.29-.6.95-.53,1.26.09.39.58.83,1.17.71l1.96-.4c.69,2.76-.58,5.03-3.36,5.67-1.42.33-3.06.61-4.3,1.5-.82.59-.4,2.13-.03,2.82,1.15,2.15,3.6-.16,5.53,1.86.51.54,1.63.61,2.31.89,1.26,2.02,3.21,2.19,5.45,1.25-2.13,3.4-6.38-1.39-10.03,2.63-2.06,2.26-6.13,5.44-8.89,6.99-.35.19.05,1.27.38,1.29,1.66.07,2.52,1.44,4.36.05,3.62-2.72,6.33.54,7.98.22,1.4-.27,1.7-2.77,3.04-3.23,3.01-1.05,5.12,2.96,9.47.59l4.11-.19,4.47,9.04c.41.82.88,1.28.73,1.92-.16.71-.47,1.8-1.54,1.62-7.81-1.32-4.93-2.33-5.99-3.44-.75-.78-3.8-1.16-4.43-.63-1.4,1.18,1.33,5.29.4,9.47l-6.4-1.12c-1.58-1.08-2.64-2.96-5.04-1.97-3.14,1.29-8.03-.34-8.59,2.44-.23,1.14.59,2.03,1.84,2.79-.62.48-1.14.62-1.4.86-.66.61.13,1.19.28,1.63.63,1.87,2.03,1.59,3.5,2.03,2.76.83,5.44,2.28,7.8,3.88l2.48,3.33c-1.25,4.17,1.43,5.76,4.4,8.46,1.29,1.18-.28,3.44,0,4.63.3,1.29-.27,2.06-.54,3.19-1.27,5.26-1.89,10.45-4.42,15.23-.94,1.78-2.78,2.45-4.69,1.57-1.89-.87-3.71-.92-5.66-1.22-1.69-.26-3.15-1.43-5.17-1.2-1.93.21-4.02-.18-5.88-.82l-7.75-2.68-3.66-3.67,3.79-31.01c2.3-6.52,4.06-12.85,5.3-19.67,1.34-7.53,1.58-14.89.68-22.55ZM198.45,27.52l21.6.14c.96.32-.34,1.77-.64,2.33-1.39,2.57-3.08,5.73-5.77,7.39l-.57,2.41c-1.14.45-2.75.5-3.59,1.4-.51.54.83,1.37,1.51,1.38,4.19.03,7.09,2.98,7.5,7.16.2,2.05.13,5.05,1.59,6.58,2.01,2.11,4.27,3.92,4.64,7.1.2,1.69.48,3.33,1.41,5.27-6.75,1.63-11.87,7.04-12.93,14.02-.51,3.33.21,6.31,1.66,9.49-1.78.19-3.31-.23-4.82.34-1.11.42-2.25,1.09-3.6.23-1.78-1.14-4.21-1.85-6.15-.39l-2.21,2.86c-5.8-3.92-8.11,1.27-10.53-.36,3.27-2.08,5.79-4.41,8.39-6.87,2.6-2.46,5.83.39,8.01-.79,1.54-.83,2.62-2.27,3.58-3.95-2.76-.48-5.74,2.54-7.03.17-.48-.89-1.42-.92-2.17-1.41-3.61-2.43-5.6-.46-6.06-1.82-.25-.75,0-1.46.88-1.7l3.87-1.09c2.96-.84,4.37-4.35,2.79-7.07-.33-.56-1.64-.35-2.21-.34,1.2-.72,2.2-2.15,3.73-2.43l6.32.37c-.29-4.14,2.42-7.05,1.47-8.33-.22-.29-1-.17-1.53-.51-.86-.56-1.71-2.53-1.36-3.6l2.29-2.94c-1.96-2.74-4.19.91-7.35-.8-.56-.3-1.78.33-2.37.2-1.06-.24-.76-1.67-.13-2.43,4.36-5.18,2.06-4.87,1.68-8.82-.05-.52-.62-.9-.9-.9-.32,0-.85.3-1.08.68l-2.79,4.65,1.92-6.38,2.01-3.74c.15-.29.05-.61-.03-.76-.64-1.27-2.59,1.37-4.94,1.86.13-4.17,5.07-4.35,3.89-8.59ZM311.06,50.88c-.33.97-2.23.84-3.11.95-1.63.2-2.87.77-4.34-.08,1.35-3.54-2.76-5.51-1.15-8.28.82-1.42.63-2.96-.56-4.05-1.76-1.6-2.32-3.64-3.12-5.73-.8-2.09-2.22-3.93-2.42-6.17l27.13.02c.56,4.89-.25,9.38-1.98,13.77-.35.9-.32,1.95-1.24,2.56h-4.48c-1.58,0-2.05.87-3.02,1.5-2.02,1.3-2.88,3.03-1.72,5.52ZM297.8,34.26c.83,2.22,1.5,4.21,3.33,5.96,1.85,1.77-.87,2.94-.07,6.08-.84-.96-1.92-1.33-2.78-.95-1.05.47-1.46,1.74-1.31,3.06-.88-.15-1.29-.78-2.03-1.27l-3.79,2.48,1.13,3.98c.46,1.62,2.73,1.24,3.15,2.15.22.47-.04,1.02-.45,1.25-1.11.61-2.16-.81-2.99-.45-.59.25-1.08,1.11-.81,1.89.6,1.72,2.59,2.29,4.36,2.16,1.59-.12,3.39-1.46,3.37-3.51-.02-1.53.27-2.6,1.92-3.28l-1.09-2.11c.92-.44,1.65-.93,1.8-1.49.26-.96.01-1.7-.26-2.94,1.37.85,1.63,2.5,1.32,4.15-.24,1.23.99,2.01,2.09,1.91l4.8-.46c.83-.08,1.57-.21,1.98-.62,1.36-1.35-.18-3.18.41-4.54.24-.56.98-.69,1.56-1.22l1.5-1.36,5.94-.35c1.67-.1,4.79-11.82,3.85-17.21l11.02-.04c1.68,0,2.81,1.32,2.6,3.03l-3.17,26.21c-3.09-.08-5.78.68-8.35,2.31-1.12.71-2.31,1.15-3.21,2.24-.85,1.04-2.11,1.63-3.44,1.96-6.34,1.59-9.55,4.88-11.09,1.78-.86-.32-1.71-.28-2.49-.99l1.59-.52c.59-.19.38-1.11.09-1.83-.49-1.24-1.61-2.71-3.09-2.2-.7.24-1.01,1.45-1.07,2.42-2.64-.74-4.16.32-6.07,1.66l-3.75,1.65c-.82.36-1.67,1.25-3.06.39.85-.5,1.85-3.05.42-3.51-1.12-.36-3.17.3-4.26-.71l-1.33-.21c-.28-.04.05-1.05-.23-1.54l-2.54-4.53c0-.9.31-2.05.67-2.99.12,2.89,3.09,5.03,5.99,4.28,1.63-1.82.94-4.56-.88-5.84-1.67-.38-2.91.1-4.67.35,1.68-1.7,3.09-2.98,3.5-5.33,1.35.15,2.29-.16,2.99-.99.58-.69.97-1.84.24-2.79-.57-.74-2.03-.65-2.79-.91-1.05-1.69.28-3.66.77-5.32.57-1.91.11-3.77.28-5.81-5.32.49-5.73,5.13-8.78,5.19-6.66.13-6.55,7.4-6.63,13.43-.01.84-.84,2.61.34,3.17,4.31,2.06,0,4.9,3.7,9.56l-1.42.8c-1.33.75,2.4,2.47.93,4.84l-1.69.24c-.66.1-.31,2.9-1.51,2.96-.59.03-.99-.23-1.34-.83-.9-1.53-6.27-1.63-7.23,1.62-2.83-.68-6.42-.6-9.08.95-1.34.78-2.26,2.58-1.42,3.86.59.9.86,1.31.82,2.24-.04.89.03,2.11-1.84,1.83,1.33-1.94.49-4.46-1.46-5.22-2.81.56-1.98,5.76-6.41,9.48-.76-9.69-9.36-16.88-19.14-15.37-1.01-1.79-1.31-3.6-1.52-5.41-.38-3.36-2.78-5.33-4.83-7.63-2.39-2.68.72-12.8-9.13-13.93.94-.81,1.71-.83,2.24-1.06.79-.35.44-1.73.63-2.38,2.4-1.86,4.17-4.4,5.44-7.13.5-1.07,1.5-1.87,1.44-3.44h73.61c.42,2.7,1.85,4.57,2.66,6.73ZM299.58,53.37c-3.18,1.19-.37,5.34-3.93,6-2.34.43-3.8-.85-3.42-1.4.54-.78,1.79,1.03,3.59-.16.84-.56.97-1.5.69-2.4-.57-1.84-3.03-.97-3.37-2.72l-.54-2.72,2.7-1.64c.28.95,1.01,1.62,1.54,1.56,1.71-.19.67-3.97,2.32-3.53,1.24.34,1.84,2.87.89,3.76-.55.51-1.38.63-1.35,1.45.02.56.26,1.15.88,1.8ZM325.58,126.21l-.97,4.02c-.28,1.17-2.11,2.19-3.12,2.99-1.41,1.11-3.58.62-5.24,1.02l-4.26,2.13-10.89-1.68c-2.11-.32-3.53-1.59-3.75-3.79-1.39-.7-2.84.09-4.12.17-4.45.26-3.83,3.39-9.16.33l-.76-2.52c2.28.33,2.44-2.89,4-1.73,3.11,2.32,5.95-1.08,11.79-1.21,1.72-.04,2.24,1.88,3.37,1.37.49-.22.91-.83.76-1.48l-1.1-4.72c1.89-.71,3.02-1.7,4.34-2.98.59-.57,2-.59,2.28-1.9,1.68.89,3.57,1.11,5.31.4,1.2-.49,1.74-2.01,2.3-3.21,3.77-.21,6.79,2.93,9.3,1.82.51-.23,2.14-.19,2.06.63l-.86,8.35c-.53.18-1.34.47-1.33.73l.07,1.26ZM321.05,147.84c-.81.95-.99,3.07-.25,4.13.83,1.2,2.28,2.21,2.11,3.82l-.68,6.58c-1.53-1.1-3.55-2.47-4.37-4.47.11-.9.55-2.07-.61-2.81-2.88-1.85-.32-6.07-5.96-8.46l-3.05,4.55c-1.26-1.3-1.71-2.74-1.97-4.56l3.77-.2c1.11-.06,1.95-.28,2.81-1.06,1.4,1.22,3.53,1.66,5.1.6l.65-2.27c2.24-.57,2.26-2.56,2.28-4.37,1.33-1.03,3.28-1.69,4.39-3.25l-1.29,11.86c-.81-.58-2.17-.99-2.93-.1ZM323.19,152.89c-1.68-.98-2.25-2.9-1.14-4.5.35.08,1.13.3,1.32.81.46,1.23.12,2.45-.19,3.69ZM321.81,137.37c-.72.51-2.41,1.01-2.23,2.2.52,3.44-1.56,1.79-2.69,5.45-.48,1.56-3.69-.93-4.24-.94-.34,0-1.16,1.68-5.29,1.29,1.07-1.09-.23-1.92-.39-2.71l-.89-4.24c-.25-1.18,2.06-1.64,2.85-1.33,2.73,1.08,4.56-.08,6.76-1.34,1.97-1.13,6.72.05,8.11-2.96.55.95.79,1.39,1.51,2.11l-3.48,2.48ZM268.57,124.81c-.68.44-1.84.09-2.29-.03-.05-8.2,7.22-11.6,3.38-12.78l-4.11-1.27c-1.22-.38-2.87-.12-3.88-1.13-.73-.73-1.16-1.75-2.12-2.29,1.3-1.33.92-2.72-.12-3.7-2.15-2.02,2.63-3.69-.98-7.89l1.47-5.68c.31-1.19-.48-2.3-.66-3.59,1.5-.06,3.31.33,4.33-.75.72-.76.94-1.99,1.81-2.74.53-.46.68-1.45.46-2.14-.17-.55-.99-.82-1.71-1.37l1.65-.45c.28-.07,2-4.24,1.65-5.59-.3-1.13-.92-1.8-.37-2.74.83-1.41,3.59-1.57,4.6-1.25.47.14.58,1.13,1.13,1.63.55.5,2.47.43,2.95-.13.61-.71.48-1.85.63-2.72l2.51-.46c.23-1.84.17-3.57-1.03-5.02.62-.45,1.01-.88,1.11-1.29.31-1.17-1.19-2.25-1.46-3.78,3.22,1.44,5.64-.04,7.02,1.77.37.48.08,1.47.18,2.11.18,1.13,1.65.79,2.2,1.01,1.62.67,2.72,1.02,4.36.58l-1.58,2.78c1.88,2.21,4.02,1.05,5.96-.03,1.71-.95,3.37-1.21,4.92-2.66.89-.84,2.98-.01,4.02.15l1.04-2.77c.84.25,1.47,1.01,1.68,2.01-.84.09-2.22.76-2.08,1.54.27,1.44,2.42,1.41,2.96,2.05.6,1.49.77,2.2,2.22,3.16,1.37.91,1.58,4.3.75,5.59-.49.76-.84,1.03-.91,1.64-.06.62.29,1.37.9,1.78,2.32,1.55.85,3.36,2.49,5.92-1.76,4.96,3.35,6.81.66,10.93-3.23-3.95-2.57.88-7.77,1.77.78-8.25-5.91-14.37-13.76-13.43-7.09.85-12.66,8.46-9.99,15.72,2.85,7.76,6.97,14.64,11.62,21.71l6.83-11.04,5.41,4.56c.54.46.95.9.82,1.61-.08.42-1.29.45-1.6.76-1.22,1.22-2.07,2.27-3.69,2.95-2.56,1.07-.5,3.62-.28,6.25-3.5-3.55-10.41,1.35-12.66.69-1.31-.39-3.06-1.53-4.36-.55-.25.33-.26,1.43-.98,1.73-4.76-4.57-9.46-6.92-15.38-3.12ZM278.57,132.16c0,2.24-1.82,4.06-4.06,4.06s-4.06-1.82-4.06-4.06,1.82-4.06,4.06-4.06,4.06,1.82,4.06,4.06ZM266.89,139.17c-.23.54-.76.84-1.47.89l-3.63.27c-2.37.17-.98-4.38-3.73-4.8-.98-.15-1.62.55-2.95,1.21,1.02-4.19,5.98-6.41,6.97-10.14,2.29,1.29,3.19-.68,5.07-.26-4.88,6.37.31,11.46-.26,12.83ZM260.02,146.36c-.39.95-2.59.75-2.8,1.83-.32,1.61,1.5,2.12,1.98,3.35-.65.99-1.14,2-.89,3.15.16.74.85,1.81,1.87,2.19l2.7,1.02c-.56,1.59-1.83,2.5-3.13,3.47l-4.52,3.39c-1.68,1.26-4.24.7-5.89-.35-1.93-1.23-3.67-1.74-5.9-2.07-2.02-.3-4.24-3.62-10.3,1.53-1.63,1.38-1.72,3.56-1.51,5.65-2.94,1.12-7.22.4-9.23-1.13-2.71-2.06-4.88-4.45-7.44-2.49-2.16.17-4.98-.74-6.86-1.86l-3.97-2.37-2.12-2.4c1-1.08,1.78-1.89,2.19-3.11l2.41-7.12,1.59-7.92c.65.25.91.57,1.02.75.19.32.9.22.93-.22.06-1.25-1.05-1.99-1.68-3.01,2.88-7.35-2.99-5.82-4.51-11.2.8-1.33.56-2.87-.71-4l-1.81-2.65-8.19-4.01c-.71-.35-2.7-.07-2.68-1.45.24-.57,1.28-1.2.97-2.18-.23-.74-.77-1.46-1.93-1.94,1.21-2.24,4.49-.51,8.08-1.93,1.04-.41,2.46.02,2.99.93.88,1.51,1.97,1.38,3.6,1.53l5.65.52c.59-3.11-.09-6.06-1.06-9.49,1.17-.1,2.02.15,3.06.47.04.91.24,2.27,1.18,2.49l5.37,1.27c1.18.28,2.06-.27,2.89-1.39l7.74,12.86c.31.52,1.23.11,1.53-.39,4.03-6.65,7.92-13.16,11.24-20.09,1.04.88,1.87,1.25,3.04,1.77-.02.74-.17,1.96.37,2.52,1.01,1.04,2.67.8,3.85-.18-.38,1.94.94,2.51,2.03,3.42,2.48,2.08,4.75,3.04,8.23,2.9.9,2.32,2.71,2.69,4.79,3.29l5.62,1.61c-5.07,5.18-4.29,11.77-5.21,12.39-.86.58-2.14-.57-3.24.07-.54.31-.54,1.54-1.01,2.09l-5.57,6.55c-.63.75-1.19,2.79-.72,3.74.77,1.59,2.78-1.5,3.65-1.56,1.28-.09.82,1.78,2.03,3.83-2.15,2.44,1,4.17.27,5.95ZM222.24,84.66c0-4.13,3.35-7.48,7.48-7.48s7.48,3.35,7.48,7.48-3.35,7.48-7.48,7.48-7.48-3.35-7.48-7.48ZM247.22,84.81c2.58-2.5,4.02-5.34,4.92-9.06,2.65.52.55,3.28,1.52,4.55.29.38.83,1.03,1.68.78.71-.21,1.85-1.16,2.04-2.03.58-2.68-1.3-3.96-1.26-4.62.18-2.38,3.51-2.62,6.12-3,1.7-.25,4.2.53,4.14,2.64-.03,1.13-.75,3.04-1.41,3.84-.84.41-1.93.5-1.93,1.59,0,.73.69,1.48,1.84,1.65.06,1.02-1.12,1.44-1.52,2.29l-.73,1.56c-.33.7-2.81-.15-3.79.39-1.69.93,1,3.12-.79,7.4-.34.8.07,2.4-1.67,2.4.41-1.24.89-2.3.55-3.27-.44-1.22-2.14-1.16-2.97-1.83-3.94-3.14-4.72-.8-8.22-.4-.44-.83.35-2.23,1.56-2.47-.15-.72-.42-1.94-.08-2.4ZM251.74,89.98c2.35,1.96,3.82,1.72,4.1,2.45.32.86-.84,2.04-.34,3.09.46.97,2.58.76,3.09,2.45.24.8.37,2.13-.54,2.5-2.91,1.22-3.53,2.97-2.67,6.06-1.62.17-2.29-1.19-3.41-1.93-2.81-1.87-.99-3.74-2.16-3.9-.66-.09-3.17,2.2-3.56.58-.24-.97.09-2.19-1.04-2.7-.99-.45-2.07-.87-2.71-1.83l2.4-5.64c2.92-.15,5.38-2.35,6.85-1.12ZM259.03,106.34c-.32.94-1.89,1.33-2.3.47-.84-1.77-.97-3.85.83-4.91l.69,2.02c1.02,1.03,1.06,1.58.77,2.43ZM274.97,50.59c-.38-.63.15-1.56.16-2.12.07-5.65-.16-12.39,5.71-12.42,3.48-.01,3.58-3.92,7.24-4.84,1.2,4.28-2.78,7.76-.56,10.56l2.73.87c.61.93-.6,1.89-1.5,1.73-2.43-.43-1.63,2.81-4.04,4.59-2.08,1.54-3.6,7.16-1.59,8.17-2.29.32-3.94.04-5.79-.7,1.16-5.16-1.95-5.18-2.35-5.85ZM299.88,95.47c0,3.01-2.44,5.45-5.45,5.45s-5.45-2.44-5.45-5.45,2.44-5.45,5.45-5.45,5.45,2.44,5.45,5.45ZM324.3,114.31c-2.88-.55-5.41-2.47-8.41-2.1l-1.95,3.04c-1.63,1.3-3.87.64-5.29-.58l-6.83-5.9c1.72-3.47,3.39-6.58,4.5-10.22l4.29-1.97c.86-.39,1.37-.85,1.54-1.99.67.73,1.18,1.49,1.84,1.59,1.06.17,1.84-.46,2.58-1.51,1.42,2.13,4.69,2.83,7.48,3.36-.28.52-.42.88-.4,1.34.03.59,3.29,4.26,4.56,2.51l1.48-2.04-1.51,14.42-3.88.05ZM327.78,99.3c-.35.27-.11,1.23-.18,1.71-.87.37-1.64-.65-2.11-1.01-.67-.5-.45-1.45-.15-2.45l-6.52-2.36-2.44-1.78c-.29-.75.14-2.54-.59-3.36-1.53-1.72-1.22-3.45-1.2-5.66.02-1.58-1.02-3.19-.82-4.81l-2.32-2.84c2.19-3.04,1.43-8.23-1.29-9.02,2.37-.31,3.94-1.11,5.89-2.01,2.15-.98,5.11-.95,7-2.54,3.4-2.85,7.12-5.39,11.95-5.43l-5.04,40.93c-.83.09-1.71.22-2.19.6ZM285.05,52.3c.96-.77,2.39-1.03,3.77-.33.85.43,1.33,2.84.45,3.21-1.78.75-4.09-1.04-4.22-2.88ZM202.45,259.55c.33.26.34.99.14,1.27-.8,1.14-2.17-1.62-5.02-1.82.32.44.66.72.67,1.03.01.36-.16.83-.62,1.24-.63.57-2.35.79-3.23,0-.85-.77-.96-3.31-.04-4.26,2.43-2.49,5.47-4.31,8.66-5.5,2.55-.94,6.86,3.34,4.93,5.35-.97-2.32-2.27-4.23-4.82-4.8.9,2.23,5.19,3.63,2.97,6.23-1.11-2.25-2.48-4.13-4.92-4.53.5,1.83,3.62,2.44,3.76,4.67.04.59-.32,1.38-1.08,1.79-.62-2.26-2.68-3.98-5.05-3.52l3.65,2.84ZM193.11,261.87l-3.23.45c-.75-2.26-.41-4.97,1.13-7,1.03-.1,1.83-.12,2.98.06-1.5,1.85-1.94,3.88-.88,6.48ZM188.39,260.9c-1.63-1.9-2.4-4.01-3.05-6.49,1.89-.56,3.41-.58,5.27.12-1.77,1.59-2.12,3.69-2.22,6.37ZM210.19,255.79c1.74-1.51,5.14-.83,7.06.48-3.75.94-7.03,2.72-10.2,5.34-1.13.94-2.84.67-4.17.39,3.14-1.57,4.93-4.14,7.31-6.21ZM209.88,251.62c-3.51-1.99-7.74-1.8-11.07.69l-3.12,1.91c-.82.5-2.94.22-3.77-.3-2.13-1.31-4.34-1.32-6.92-.67l-4.05-9.65c-.75-1.78-2.11-3.59-4.12-4.17-3.11-.91-6.98-.87-9.96.49-3.39,1.55-3.86,5.13-4.87,8.5-1.27-4.67-2.83-8.49-5.13-12.33l-2.23-3.73,17.22-1.42c3.82,1.26,7.59,1.42,11.6,1.57-2.71.68-5.95-.14-8.55,1.33-1.07.6-.25,2.6.17,3.36.6,1.09,1.82,1.86,3.28,1.99,3.82.35,7.59.43,11.37-.08,1.82-.25,3.04-1.15,3.39-3.02.15-.79.33-1.62.02-2.39-.29-.74-1.39-.75-2.3-1.75l13.82.43c3.85.12,7.11,2.1,10.16,4.42,8.43,6.41,16.37,13.11,24.13,20.3,1.32,1.23,2.33,2.4,3.23,3.83-1.51.43-2.65.02-3.97-.75-5.14-3-10.54-4.67-16.45-4.49-2.64-3.88-7.2-5.35-11.87-4.09ZM89.62,261.69c-1.68-3.78-1.43-8.27-.09-12.19.62-1.8.67-2.99.59-4.85-.24-5.54,2.17-10.91,5.56-15.27l3.36,1.3c5.88,3.67,10.15,11.98,7.3,18.07.43,2.2,1.27,4.33.79,6.87-.67.86-1.6,1.81-2.49,2.32-4.25-.49-9.29-.34-12.13,3.53,3.66-1.48,6.83-3.41,10.75-2.6-3.55,1.41-8.09,4.11-6.16,5.06,1.96-2,4.15-3.51,6.79-4.06-1.52,3.05.2,6.46,3.41,7.49,5.28,1.71,9.81-.19,12.07,3.16-6.18,4.38-13.35,6.51-20.73,5.12-4.54-.86-7.78-4.52-7.67-9.11.04-1.86-.62-3.17-1.36-4.83ZM105.74,222.7c-2.73-2.84-2.05-7.41.63-10.02.79,5.32,7.17,6.52,11.82,12.14,3.35,4.04,5.08,8.69,6.85,13.6,3.06,8.49,5.56,16.87,5.98,26.11-1.56-3.56-3.06-6.85-6.4-9.5,1.44-.75,3.37-.32,4.5-1.99l-5.87,1.06c-4.82-1.9-9.29-1.51-14.8.88-.2-2-.11-3.95-1.02-5.89.84-1.75,1.02-3.55.83-5.52-.84-6.29-5.42-13.72-11.87-14.71,2.62-1.95,5.19-4.29,8.34-5.3,1.73,1.13,3.91,2.47,5.99,2.91,3.25.68,5.87,2.27,9.06,3.36-2.03-4.03-10.72-3.68-14.04-7.13ZM109.86,205.59c-1.58-.2-3.05-2.1-2.7-3.83.22-1.09,1.19-1.87,1.78-2.76.24,1.2-.07,2.27.93,3.1l.12-4.53c.67-2.32,1.1-4.34.76-6.91-.51-3.91,2.31-8.42,6.52-8.37,2.59.03,4.73.31,7.33-.42,2.75-.77,5.3,1.99,5.68,4.58.35,2.36.63,4.23,1.74,6.4-2.58-.54-5.01-.61-5.08.19-.1,1.25,4.51-.37,6.69,1.98.74,4.93,2.35,8.9.27,14.01-1.27,3.12-3.85,5.41-6.48,7.18.28-.87,1.51-1.05,1.02-2.29-2.37,2.61-5.4,2.4-8.25.51.89,2.89,3.8,1.72,5.81,2.39-7.2,1.13-14-4.24-15.03-11.4-.14-.96-.39-1.77-1.08-2.31-.38.92-.09,1.44-.06,2.47ZM126.86,224.91c2.35-.53,3.68-2.22,4.21-4.82l3.17,4.16c-3.88,1.26-6.85,3.18-8.67,7.37l-4.17-6.77c1.99.11,3.64.46,5.46.05ZM120.38,223.05l-4.48-4.66c-1.04-1.08-1.71-2.56-.83-3.72,4.54,3.5,9.09,5.63,14.69,6.24-.74,3.63-7.16,3.64-9.37,2.14ZM107.39,265.94c-1.51,0-2.27-1.57-2.66-2.5-.62-1.48-.03-2.89.81-4.15,1.97-2.95,5.1-4.14,8.46-4.9,5.77-1.3,11.36,1.08,13.91,6.52l3.26,6.95-.39.31c-.89-1.78-2.1-4.54-4.57-4.76l-19.66-1.82c-1.21.76-.45,3.63.84,4.36ZM115.16,264.71c2.51-1.1,4.62.35,6.52,1.97l5.18,4.44c1.35,1.16,4.01-1.23,4.11-2.65.01-.1.14-.3.31-.4l.57,1.84c-.99.94-2.78,2.95-4.33,2.61l-5.83-5.03c-1.92-1.66-3.67-3-6.53-2.79ZM128.06,243.28l5.58,10.59-1.2,11.45c-.64-7.41-2.02-14.37-4.38-22.04ZM126.66,233.86c-.31-4.28,4.53-8.09,8.86-8.49,1.43.62,2.79,2.32,4.81,2.56l-5.53,1.54c-2.14.6-2.69,3.24-1.53,5.51l9.78,19.05,6.46,12.89-6.58.12-16.26-33.18ZM145.53,249.05l-6.28-12.02c-.28-.53-.21-1.33-.06-1.74.19-.53.86-.98,1.59-1.08l12.15-1.71c.93.92,2.48,2.32,2.44,3.89-.03,1.25-1.91,2.14-2.71,2.53-.89-1.62-1.11-3.4-3.12-3.65,2.45,3.59,3.72,7.3,3.63,11.52,4.86,5.91,3.94,13.5,4.49,14.08,1.31,1.4,1.41-8.11-3.32-14.48-.5-2.01-.16-4.52-1.27-6.46,1.53-.68,2.05-1.46,2.96-2.9,1.81,2.88,3.32,5.59,3.92,9.03.07,1.21-2.03,2.23-3.01,2.76.47,1.16,1.2.68,1.8.26.51-.36.9-.76,1.12-2,1.88,1.6,1.83,3.65,1.33,5.84-.85,3.72-1.19,7.42-2.85,11.02-3.14-.85-5.88-2.83-7.49-5.64l-5.32-9.27ZM198.02,225.11c-14.88-.96-29.57-.62-44.19.61-1.29-1.62-1.37-4.41.15-5.44,13.39-.55,26.53.23,39.78,2.13,5.91.85,11.38,1.95,16.82,4.04l-12.57-1.34ZM167.52,217.73c-.47.51-1.46.88-2.07.79-.63-.1-1.41-.66-1.84-1.2-1.71-.82-1.93-1.96-1.72-3.71l4.76-39.18,28.46,32.48c1.16,1.33,2.31,1.9,3.89,2.48-3.8.49-6.1,2.67-7.82,5.8-4.15.49-8.31.19-12.53-.63-2.76-.53-4.53.17-6.74,1.21-1.42.67-3.14.61-4.39,1.97ZM168.8,147.5l-4.99-5.41,7.58-18.06-2.59,23.47ZM165.52,173.05l-5.54,45.62-5.81.18c.11-1.98-.35-3.27-1.17-4.89l5.97-48.24,6.55,7.34ZM91.27,234.42c-1.62,2.83-1.94,6.15-2.65,9.39-1.31,5.97-2.22,11.33-1.93,17.36.04.81-2.48.71-2.4-.07.97-9.04,2.95-17.65,5.5-26.23.22-.73,1.1-.97,1.48-.45ZM206.05,272.15c-13.24-2.7-26.49-4.08-40.04-4.51-1.31-.04-2.46-.22-3.8-.6l8.86-.38,83.03-3.98c5.13-.25,9.31.36,14.24,1.28,18.97,3.54,36.57,11.44,51.04,24.24,2.82,2.5,7.37,6.95,6.99,9.11-.43,2.46-6.21,3.63-10.23,4.16-11.64,1.52-23.12,1.86-35.14.86-7.18-.59-13.4-2.46-19.46-5.81-10.23-5.66-20.43-10.58-31-15.58-8.01-3.79-15.68-7-24.49-8.8ZM247.24,251.03c.6-1.98,7.53-.74,10.62,4.25.45.73,1.09,2.27.35,2.77l-2.39,1.6c-1.92-1.68-3.56-3.27-4.65-5.68l-.67.75-2.92-2.45c-.44-.37-.45-.87-.35-1.23ZM258.09,261.2c2.13-2.36,2.13-5.08.39-7.41-3.03-4.07-10.8-7.18-12.43-2.99-7.51-6.32-14.68-12.66-22.66-18.41-3.52-2.53-6.82-5.03-10.85-6.63-12.88-5.09-30.71-6.22-44.47-6.88,1.13-1.55,3-1.38,4.36-2.08,2.15-1.11,3.99-1.58,6.46-1.06,3.44.73,6.86.84,10.38.79,4.74-.07,2.8-5.12,10.66-6.08l4.53-1.22c2.2-.59,3.74-2.34,5.35-3.75,2.13-1.87,3.19-4.28,3.1-7-.09-2.69-1.47-4.98-3.91-7,1.94-2.37,3.67-4.8,6.58-6.34-.13-1.73.7-2.68,2.16-2.92l10.48-2.79c.77-.22,2.71-1.63,2.58-2.5l-13.91,4.41c-1.45.45-2.49,1.35-2.48,3l-1.87,1.37-4.43,4.74-32.73-35.96,8.28,2.32,6.12.57c1.7.65,3,.86,4.82,1.08,2.04.25,4.12,1.41,6.2,1.44,1.44.02,1.43,2.08,2.11,2.47l5.01,2.91c2.13,1.23,7.68,2.68,8.85,1.03,1.78.2,3.33,1.47,4.38,2.91.56.76,1.91.74,2.64,1.07,2.77,1.27,5.31,1.09,8.65.26-.18.48.37,3.7-.77,5.24-2.49,3.34-6.7,5.43.59,1.5,2.28-4.11-.41-8.76.81-11.53.75-1.7,5.17-4.66,7.68-3.23,1.61.92,3.44,1.06,5.22,1.5l3.82,1.9c6,2.98,8.52-3.98,13.31-4.84,2.28-.41,3.71-1.01,5.21-2.94.77-.99,2.47-2.68,4-2.19,2.71.87,5.64,2.39,7.8,4.25l2.4,8.03,4.41,5.98c.47.64,2.12.7,2.85.27-1.55-.79-2.49-1.47-3.39-2.72l-2.78-3.86-2.61-8.24c-1.77-2.24-5.21-3.5-7.75-4.62-4.24-1.87-6.18,4.77-9.99,4.81.51-.82.89-1.76.67-2.47-.5-1.6-2.99-.49-4.39-2.68-.44-.69-.1-1.51.34-2.38,1.07-2.13-1.48-2.9-1.47-3.45.02-.88,2.32-.71,2.74-2.19.75-2.59-1.39-3.41-1.13-5.07l4.54-.35c1.15-.09,2.11-.05,3.09-1.11l6.91,11.13,7.26-12.35c.19-.33,1.17-.58,1.28-.95.1-.33-.19-1.21.05-1.46.47-.49,1.76-.27,2.06-.68.4-.54.43-1.28.44-2.56,2.08,1.35,3.37.72,5.08-.43,1.47-.99,3.86-.76,5.54-1.11.55,2.06,1.73,3.44,3.58,3.75l6.09,1.04-1.17,1.39c-.45.53.14,1.17.27,1.86l.69,3.5c-1.06,0-2.1-.18-3.07.23l-4.67,1.99c-.81.35-1.5.89-1.67,1.46-.66,2.17,1.47,2.95,1.43,3.99-.01.36-.82.85-.98,1.25-2.56,6.42,5.39,9.03,8.15,12.29,1.99,2.35,3.59,13.53,6.61,14.64.23.09.8-.45.64-.61-3.36-3.41-4.44-13.42-6.82-15.27l-5.18-4.01c-1.95-1.51-3.36-3.96-2.33-6.44.25-.59,1.22-1.09,1.13-1.9-.17-1.45-1.6-2.2-1.6-3.25,0-.38.38-.83.89-1.05l4.67-1.98c1.12-.48,2.23-.35,3.55-.26-2.93,1.88.06,8.04,1.73,7.83,1.7-.22,2.43-2.82,3.24-4.14,4.16,1.71,1.58,5.77,5.56,8.36-2.36,1.67,1.84,4.67,4.94,7.31l-1.77,14.54c-1.96.74-8.06.85-9.76-.41-1.11,1.85,5.91,2.11,9.62,1.69l-10.74,88.42c-10.03-2.67-19.7-3.94-29.73-4.86l-21.48-1.96ZM75.69,214.03c-8.58-13.6-16.61-27.18-24.38-41.31-7.23-13.15-13.64-26.26-19.42-40.08-4.31-10.3-7.85-20.43-10.3-31.3-2-8.85-2.3-17.29-1.29-26.31,2.53-22.61,13.76-43.09,31.48-57.09C76.46-1.58,110.22-4.08,137.5,11.72c20.5,11.87,34.9,32.23,39.58,55.58,1.94,9.7,2.58,19.17.9,28.93-2.76,16.05-8.67,30.05-15.1,44.78l-3.6-3.53-2.54-.67-8.06-8.85c25.4-31.27,16.11-78.04-19.52-97.1-20.74-11.1-46.52-9.65-66.08,3.9-18.84,13.05-29.32,35.27-27.2,58.66,2.08,22.98,16.46,43.06,37.63,52.57,21.03,9.45,45.68,6.59,64.15-7.37l7.87,8.66c-.51,1.04-.71,2.36.01,3.19l8.31,9.47-13.38,24.33c-2.9-8.82-12.01-13.38-21.01-12.28-2.73.56-4.98,1.94-5.88,4.7-3.11-.29-5.55,1.07-7.27,3.51-4.62,6.77-.23,11.9-6.53,17.52-2.6,2.32-3.48,5.69-1.94,8.75,1.02,2.03-.13,3.84-1.97,4.83-3.09,1.66-4.85,4.72-3.33,8,1.03,2.21-3.74,3.06-3.77,8.55l-3.53,1.3-9.54-15.12ZM15.05,242.51c-.28-1.56-.78-2.6-1.31-3.79l52.5-.97c-.28.46-1.23,1.09-1.92,1.09-16.63.09-32.89.39-49.27,3.67ZM59.11,242.37l-18.68,13.34-7.38,4.66-4.07-11.64c-.6-1.72.91-3.7,1.55-5.43l28.58-.94ZM22.88,247.77c1.59-.27,2.78.6,3.44,1.98l3.69,10.8c-2.01.93-4.12-.08-5.36-1.71l-1.77-11.07ZM24.84,265.1c7.32-3.66,15.06-4.15,23.51-3.34-4.04-2.3-8.3-1.02-12.73-1.18l12.67-9.05c7.86-5.62,15.62-10.87,24.21-15.28,5.33-2.7,10.38-5.08,16.19-6.92.48.78.76,1.62.9,2.79-11.77,3.93-22.71,9.66-32.45,17.39-2.58,2.05-4.78,4.98-3.61,7.26,1.66,3.23,18.14,5.24,24.86,6.4-3.09,2.18-5.87,4.46-8.09,7.47-3.53,4.8-2.38,15.19-.85,21.71,2.21,9.41,5.72,18.34,10.94,26.42,2.53,3.92,6.35,6.34,10.92,7.04l47.14,7.27,7.82,1.66c.31,1.01.36,1.89.41,3.05l-83.84-12.13-12.92-1.62c-.38-14.66-3.82-35.75-14.12-45.44-5.12-4.82-12.48-4.85-17.42.26l-3.19-2.97c-2.79-2.6,4.85-8.38,9.67-10.79ZM8.81,309.74l-1.02-12.81c-.3-3.81-1.43-7.31-.46-11.17,1.39-5.55,5.17-3.24,7.34-8.65l3,2.45c-8.71,10.13-9.23,27.06-7.04,39.78-5.05-2.47-1.44-4.9-1.81-9.6ZM12.17,320.87c-2.6-9.5-1.95-19.33.09-28.7,1.41-4.55,3.08-8.67,6.3-12l1.79,1.18c-9.88,10.26-9.37,25.99-8.19,39.53ZM33.82,338.37c-2.68,2.64-6.37,2.78-9.15.3-2.53-2.26-4.27-5.32-5.36-8.72-3.08-9.63-3.32-19.96-.55-29.67,1.08-3.79,2.79-7.25,5.5-9.85,2.88-2.76,6.93-2.82,9.69-.05,5.13,5.16,7.09,14.05,7.27,21.46.22,8.94-.97,20.17-7.4,26.53ZM72.68,333.27l-24.83-2.24-.66-10.14c-.75-11.53-2.02-23.31-7.87-33.38-4.07-7-10.59-11.41-17.88-7-.7.42-1.84-.47-2.25-1.06,3.92-4.2,10.15-4.6,14.77-1.11,3.48,2.63,5.69,6.27,7.67,10.19,5.37,11.68,6.86,23.61,7.5,36.54l23.29,3.01,74.12,10.69c.87,1.54.88,3.04,1.5,4.95l-75.37-10.47ZM145.84,317.57c-.39,5.38-.1,10.54.44,15.87-.54.03-1.02-.05-1.79-.27-2.55-16.84.71-43.46,18.21-49.57,12.05-4.21,22.67,5.42,28.21,16.05-1.09-.04-2.6.07-3.55-.44-6.62-10.39-18.4-16.86-28.86-9.36-8.33,5.98-11.93,17.51-12.67,27.72ZM161.74,356.38c-3.17-2.84-5.34-6.44-6.85-10.64-4.03-11.2-3.77-23.65.67-34.68,1.5-3.73,3.69-6.72,6.58-9.29,4.47-3.97,10.74-4.01,15.39-.18,3.12,2.57,5.27,5.95,6.79,9.87,4.37,11.34,4.32,23.93,0,35.31-1.44,3.8-3.62,7.05-6.66,9.78-4.82,4.32-11.27,3.99-15.92-.18ZM186.29,357.86c-2.86,3.34-5.46,7.32-10.46,7.89,3.06-2,6.11-3.74,8.49-6.87,9-11.84,10.27-26.11,8.36-40.72,2.02,3.76,1.36,7.66,1.63,11.6.14,10.06-2.45,19.85-8.03,28.11ZM190.81,305.44l-2.38-4.53,15.79,1.11c-3.39,3.56-8.54,4.46-13.41,3.41ZM340.61,348.85l-27.39,4.14c-24.74,3.74-55.95,3.06-81.07.86l-25.08-3.58c-2.2-.31-4.22-1.63-4.49-3.92l-1.17-9.97c-1.18-10.01-2.46-19.63-6.05-29.16,4.48-.08,7.97-2.06,10.99-5.11l5.83.06c2.47.13,4.63-.59,6.61-1.92,7.44,5.57,23.17,11.68,30.83,8.7,2.11-.82,3.23-2.73,2.98-5.05-.78-7.41-9.23-13.43-15.13-18.37l22.75,11.55c7.18,3.65,14.1,6.06,22.29,6.51,11.01.61,21.84.52,32.78-.91,4.42-.58,10.89-1.56,12.06-4.55,1.04-2.68-3.22-7.09-6.34-9.91-13.25-11.96-29.23-20.01-46.49-24,.97-.59,1.76,0,2.66.05,13.15.76,25.86,2.94,38.65,6.94-3.4,1.67-1.16,6.59,1.8,10.09,5.22,6.19,11.28,11.51,18.06,15.97,1.26.83,3.05,1.79,4.45,1.48.98-.21.63-1.89.63-2.8l8.65,10.12c.75.87,1.93,2.86,1.19,3.94-1.2,1.75-7.45,2.67-6.97,8.5l1.22,14.98c.1,1.24-.16,3.25.94,3.91.92.56,1.93-.93,2.54-1.23.59-.28,2.12.53,2.31,1.12,1.66,5.08-4.11,10.66-10.03,11.56ZM349.71,312.91c-.93,2.28-2.56,2.52-4.19,3.16.35-1.97,2.49-3.4,4.19-3.16ZM344.62,319.63l6.05-3.95c.21-.14.86.09.85.68-2.28,1.09-4.18,2.78-6.9,3.27Z"/>
        <g>
          <path fill="#5e5f5f" d="M278.11,349.36c-2.65-.75-3.7-3.18-2.73-5.53,1.62-3.94,3.79-7.6,6.46-10.98,1.45-1.83,3.86-2.76,6.2-2.92l23.1-1.57,29.24-3.52c1.39-.17,2.57.5,2.87,2.01.85,4.27,1.51,8.85,1.26,13.22-.22,3.78-2.86,5.76-6.33,6.4-15.29,2.81-30.52,4.58-46.1,5.14-4.81.17-9.36-.94-13.98-2.25ZM287.01,346.12l7.02-15.08c-1.02-.19-1.98-.14-2.97.23l-6.89,14.71c-.67,1.46-1.68,2.33-3.57,2.74,5.31,1.69,10.71,2,16.5,1.59,13.92-.97,27.53-2.27,41.15-5.06,3.01-.62,5.12-2.51,5.18-5.65.09-4.42-.61-13.18-2.2-13.48-.39-.07-1.02-.07-1.45.2.67.88,1.02,1.49,1.12,2.41l.95,8.88c.23,2.17-1.38,5.14-3.24,4.45-.48-.18-.9-.69-.96-1.38l-1.19-13.81c-.67-.22-1.37-.07-1.8.15,1.16,5.19,2.01,10.25,1.79,15.56-.63,1.37-2.95,1.92-4.53,2.19-14.19,2.45-28.34,3.77-42.74,4.37-.82.03-1.75-.43-2.14-.83s-.43-1.31-.03-2.17Z"/>
          <path fill="#5e5f5f" d="M259.05,346.95l15.6,4.71c.52.16.78.33.8.75.02.31-.31.77-.92.72l-34.93-2.94c-3.66-.31-7.07-1.19-10.32-2.58-2.47-1.05-3.59-3.4-3.18-6,1.08-6.81,4.39-18.84,9.99-21.67,2.43-1.23,5.29-1.83,8.15-1.73l33.7,1.15c-2.79,1.6-5.52-.04-8.45.47,1.65.9,2.57,2.44,3.23,4.26l4.44.95c.69.15,1.21.58,1.25,1.15.05.73-.53,1.36-1.4,1.4l-5.2.27-9.28,14.77c-.99,1.57-1.86,2.9-3.48,4.31ZM269.92,323.14c-.5-1.39-1.68-2.12-2.88-2.15l-23.96-.61c-2.53-.06-5.09.15-7.41,1.73l34.25,1.02ZM255.64,326.33l16.34.19c1.51.02,3.26,1.12,4.38-.52l-7.34-.25-12.35-.21-11.19.08c-2.1.02-4.12,1.49-4.79,3.57-2,6.27-4.74,12.15-5.78,18.91l6.37-17.9c.85-2.37,2.32-3.82,5.04-3.83l9.31-.05ZM243.5,349.57l29.08,2.5-14.3-4.47-2.99.7-19.1-.21c2.33,1.01,4.71,1.27,7.31,1.49Z"/>
          <path fill="#5e5f5f" d="M285.9,309.16c-3.81-.21-7.63-1.9-10.37-4.78,13.39,1,25.99,1.32,38.88-.14,5.14-.58,11.51-1.65,15.29-4.83,1.11.96,2.75,2.64,2.41,4.39-.57,2.96-13.69,4.38-19.26,4.85-9.04.77-17.9,1.01-26.96.5ZM283.62,307.12c12.91.67,33.16,1.12,44-3.36,1.26-.52,2.66-1.2,2.22-3.07-7.58,5.04-25.28,5.77-34.86,5.44l-16.42-.57c1.41,1.18,3.02,1.45,5.06,1.56Z"/>
          <path fill="#5e5f5f" d="M333.46,315.81c-18.69,2.31-37.15,3.99-55.84,2.66,18.4-.7,36.35-.64,54.48-3.54,4.57-.73,8.8-1.33,12.92-3.35.26-.13.62-.33.86-.2,1.88,1.01-7.28,3.71-12.41,4.43Z"/>
          <path fill="#5e5f5f" d="M82.28,284.57l-8.61-.6c-2-.14-3.09-1.78-2.98-3.52.13-2.03,1.63-3.07,3.8-3.08,5.94-.03,10.37,3.2,9.77,5.8-.17.73-.9,1.47-1.98,1.39ZM80.44,279.69c-2.69-1.24-5.7-2-8.59-.61l3.43.72c1.6.34,3.37.52,5.16-.11ZM82.9,283.11c.48-3.52-4.88-.98-10.97-2.71-.34,1.02.3,1.93,1.17,2.1,2.98.59,6.55,1.11,9.8.61Z"/>
          <path fill="#5e5f5f" d="M299.46,293.2c1.75.61,4.39,3.55,4.01,4.56-.76,2.01-6.58-.43-9.33-3.86,1.64-.94,3.6-1.31,5.32-.7ZM302.49,297.45c-.96-2.2-2.43-2.93-3.86-3.79l-2.94.5c1.93,1.68,4.17,3.55,6.8,3.29Z"/>
          <path fill="#5e5f5f" d="M66.73,296.52c.52.1.74.21.89.28.34.17.18.99-.21.92l-10.61-1.99c-6.56-1.23-11.61-15.15-12.66-22.52-.29-2.07.29-4.01,1.52-5.32,3.1-3.29,9.11-1.58,13.25,1.24,1.76,1.2,2.99,3.03,3.15,5.27.42,6.08,1.18,11.92,2.37,17.9.28,1.38.06,2.71-.92,3.61l3.21.61ZM63.47,292.94c-1.31-6.12-2.12-12.08-2.54-18.31-.12-1.76-.92-3.27-2.43-4.31-3.32-2.27-9.53-3.42-11.7-.88-3.36,3.94,2.29,16.64,6.05,21.98,2.65,3.77,11.49,5.55,10.63,1.51Z"/>
          <path fill="#5e5f5f" d="M152.59,245.91c.03.7-3.66,3.32-6.07,2.97,1.31-1.47,3.18-1.78,4.83-2.88l.7-.47c.19-.13.53.03.54.38Z"/>
          <g>
            <path fill="#5e5f5f" d="M104.1,248.57c-3.79-2.83-8-2.32-12.85-2.12,3.26-2.65,12.39-.57,13.37,1.52.09.19-.34.73-.52.6Z"/>
            <path fill="#5e5f5f" d="M105.57,267.72c-.19,2.89-.7,5.01-1.04,7.76-1.21-2.46-.64-5.68,1.04-7.76Z"/>
            <path fill="#5e5f5f" d="M124.15,239.04c-4.89,1.9-9.9,3.48-15.15,2.49,5.06-1.23,9.81-.88,14.23-3.29.4-.22,1.12-.02.92.8Z"/>
            <path fill="#5e5f5f" d="M118.69,207.06c-.39-.56.26-1.26.79-1.27l10.15-.19c-.46,2.63-2.66,3.75-4.88,4.01s-4.56-.42-6.05-2.54ZM128.25,206.59l-8.67.24c2.76,2.32,6.46,2.43,8.67-.24Z"/>
            <path fill="#5e5f5f" d="M123.11,202.92l2.11-.26c2.75-.34-2.45-4.63-.04-7.58-.02,5.16,3.74,6.88.65,8.29-.72.33-2.08.79-2.71-.45Z"/>
            <path fill="#5e5f5f" d="M120.09,193.39c-2.42.82-4.63.99-7.26,2.16,1.39-2.5,4.54-3.34,7.26-2.16Z"/>
            <path fill="#5e5f5f" d="M118.06,198.24c-.34.32-1.32-.44-1.29-1.22-.73.23-1.13.77-2.11.29,1.46-1.65,3.78-2.18,5.82-.65-.98.5-1.45.66-2.42,1.58Z"/>
            <path fill="#5e5f5f" d="M130.81,196.43c-.32,0-.46.94-.71,1.13-.31.23-.91.49-1.35-.03-.14-.16-.38-.66-.57-.76s-.6.35-.98-.18c1.24-1.82,3.83-1.57,5.25-.06-.58.74-1.21-.1-1.64-.09Z"/>
            <path fill="#5e5f5f" d="M134.27,187.34l-1.69-4.38c-1.51-3.9-5.96-6.06-10-4.39-.73.3-.95,1.91-2.2,1.53.17-1.7,1.69-2.7,3.28-3,4.91-.92,9.19,2.37,10.5,7.21.96,3.53,2.8,5.79,6.4,7.49-3.13.59-5.31-1.94-6.28-4.46Z"/>
            <path fill="#5e5f5f" d="M145.8,214.71c-.47,3.78.89,5.83,4.36,7.36-1.86,1.03-3.56-.86-4.43-2.13-1-1.45-1.56-3.72.07-5.22Z"/>
            <path fill="#5e5f5f" d="M118.32,178.42c.01.45.23,1.02.37,1.28.22.41-.51.83-.8.46-.93-1.22-.75-3,.2-4.2.86-1.08,2.47-2.61,4.17-1.46-2.03.92-3.99,1.63-3.94,3.92Z"/>
            <path fill="#5e5f5f" d="M104.86,198.91l-2.65,3.42c-.56-4.24,6.22-4.76,4.39-12.45-.97-4.07,1.18-8.25,5.25-9.25.34-.08.87,0,1.04.11.15.09.23.28.16.58-.1.42-.53.36-1,.46-3.69.83-5.2,4.64-4.35,8.19s.04,6.65-2.83,8.94Z"/>
            <path fill="#5e5f5f" d="M99.84,223.07c-.71-1.45-.61-2.69-1.42-3.82-3.14-4.34,3.63-6.61,4.96-9.53.6-1.32-.34-2.72.16-4.32,1.56,1.5,1.49,4.03.37,5.63-1.94,2.77-6.94,3.97-4.48,8.04.66,1.09,1.64,2.47.41,4Z"/>
          </g>
          <path fill="#5e5f5f" d="M177.4,354.21c-4.59,4.24-10.95,3.9-15.16-.38-11.78-11.98-10.73-39.88.81-49.88,4.32-3.75,10.17-3.61,14.45.2,2.8,2.5,4.67,5.7,6,9.39,3.55,9.85,3.62,20.65.2,30.55-1.34,3.88-3.24,7.31-6.29,10.13ZM183.54,339.99c-2.16-2.54-4.61-4.41-5.89-7.39-.59-1.39-.63-4.34.05-5.67,1.53-2.95,4.21-4.69,6.25-7.16-.21-1.79-.66-3.38-1.46-5.2l-6.24,6.83c-.44.48-1.42-.02-1.7-.42s-.62-.92-.63-1.69l-.3-14.7,1.6-.51c-3.24-2.58-8-2.08-11.29.75-2.86,2.46-4.78,5.64-6.13,9.28-3.52,9.51-3.66,19.96-.37,29.55,2.78,8.11,9.09,15.05,16.97,11.22-.58-.46-1.06-.34-1.65-.36l.47-14.67c.04-1.12,1.11-2.48,2.19-2.45l6.61,7.77,1.53-5.18Z"/>
          <path fill="#5e5f5f" d="M40.06,321.73c-.5,5.15-2.2,9.75-5.22,13.67-2.54,3.29-6.89,3.95-9.92.99-2.22-2.17-3.58-4.9-4.53-7.97-2.79-9.04-2.81-18.7-.04-27.74,1-3.26,2.51-6.18,4.97-8.38s5.88-2.15,8.35.03c4.52,3.99,6.34,11.6,6.69,17.86.64,2.69.31,5.19.05,7.9l-.35,3.64ZM38.49,323.11l-3.49-5.54c-.87-1.38-.69-4.11.21-5.44l3.36-4.98c.71-1.05-.23-2.74-.51-4.06l-3.36,4.36c-.39.51-1,.72-1.43.43-.28-.19-.68-.69-.7-1.19l-.4-13.9c-1.47-1.74-4.88-1.06-6.45.65s-2.8,3.63-3.68,5.97c-3.61,9.65-3.49,20.25-.15,30,.83,2.42,2.1,4.44,3.84,6.18s4.24,2.11,6.25.8c-.42-.98-.52-1.88-.48-2.91l.42-10.06c.03-.69.88-2.45,1.6-1.92,1.91,1.39,2.65,3.78,4.14,5.37.39-1.3.76-2.51.83-3.78Z"/>
          <path fill="#5e5f5f" d="M238.05,298.42c-.49,2.38-3,3.05-5.12,2.89-12.62-.94-25.32-14.93-19.71-20.73,6.31-6.52,26.6,9.3,24.83,17.84ZM223.39,282.89c-4.08-1.5-8.23-2.4-8.64,1.18-.29,2.6,1.42,5.1,4.08,5.64-.82-1.84-1.05-3.9.2-5.55.99-1.32,2.79-1.34,4.12-1.01l.24-.26ZM223.66,283.12l-.28.22c1.58,1.15,1.24,3.16,1.34,5.34,1.57-1.69.9-4.82-1.07-5.57ZM223.49,287.06c.17-1.19-.14-2.14-.86-2.57s-1.74-.35-2.38.26c-.49.47-.73,1.2-.76,2.12-.05,1.38.63,2.73,2,2.65,1.02-.06,1.79-.97,2-2.47ZM226.17,297.2c-.22-2.49.24-4.38,2.2-5.58-1.77-.34-3.77-.87-5.67-.05-.79.34-.91,1.44-.83,2.06.1.71.45,1.42,1.23,1.86l3.06,1.71ZM231.16,293.03c-.73-.52-1.69-.64-2.51-.01-1.61,1.22-1.71,4.05-.04,5.23.9.64,2.06.17,2.63-.38,1.35-1.31,1.28-3.87-.08-4.84Z"/>
          <path fill="#5e5f5f" d="M62.57,291.76c.11.52.44,2.35-.29,2.54-3.34.6-7.34-.94-9.25-3.87-3.3-5.08-8.22-16.36-5.7-20,1.6-2.3,6.04-1.38,9.6-.16,1.7.58,2.84,1.83,3.08,3.71.4,6.05,1.27,11.8,2.56,17.78Z"/>
          <path fill="#5e5f5f" d="M166.11,332.09c-2.03,2.86-4.69,4.42-7.19,6.58-1.06-5.63-1.19-10.89-.21-16.25.24-1.3-.16-1.91-.7-3.23,2.87,2.33,5.61,4.51,7.91,7.33.87,1.06,1.03,4.37.19,5.56Z"/>
          <path fill="#5e5f5f" d="M167.17,320.85l-4.87-4.94c-.46-.47-1.48-1.51-1.18-2.26,1.6-4.13,4.56-7.47,8.32-9.71l.78,16.22c.03.71-.8,1.16-1.21,1.25-.49.11-1.27.02-1.84-.56Z"/>
          <path fill="#5e5f5f" d="M168.91,354.45c-3.92-2.16-6.36-5.93-8.05-10.11l7.17-7.29c.53-.54,1.86,1.05,1.81,1.84l-.92,15.56Z"/>
          <path fill="#5e5f5f" d="M174.41,324.28c2.88,4.25,1.09,10.85-2.04,11.19-1.07.12-2.19-.34-2.9-1.37-2.97-4.33-.87-10.96,2.14-11.14.99-.06,2.13.34,2.79,1.32ZM171.17,325.22c-1.83-.25-3.17,6.23-.11,7.89,3.05-1.11,2.24-7.6.11-7.89Z"/>
          <path fill="#5e5f5f" d="M30.18,306.65c-.06.86-.51,1.3-.92,1.44s-.95,0-1.41-.37l-4.34-5.51c.89-3.71,2.81-7.1,6.07-9.41l.6,13.86Z"/>
          <path fill="#5e5f5f" d="M27.1,317.1c-1.3,2.19-3.1,3.43-4.85,5.2-.83-4.26-.91-8.4-.41-12.72.28-.96-.09-1.72-.09-2.94,1.96,1.73,3.89,3.36,5.33,5.62.63.99.68,3.72.01,4.83Z"/>
          <path fill="#5e5f5f" d="M29.1,336.15c-3.08-2.28-4.61-5.67-5.56-9.3l4.85-6.05c.97.22,1.53,1.22,1.47,2.32l-.75,13.03Z"/>
          <path fill="#5e5f5f" d="M33.33,310.59c1.61,3.74.62,8.95-1.95,9.14s-4.18-5.08-2.14-9.41c.42-.88,1.37-1.31,2.1-1.27.84.05,1.59.6,1.99,1.53ZM30.9,317.9c1.6-2.27,1.51-5.15-.11-7.22-1.8,2.02-1.99,5.34.11,7.22Z"/>
        </g>
      </g>
      <path fill="#5e5f5f" d="M286.94,174.25s4.08,3.65,28.06,4.93l-4.57-1.28c-11.51-1-20.63-3.38-20.63-3.38"/>
    </g>
  </g>
</svg>